HIERARCHY
ROOT hip
{
  OFFSET 0 0 0
  CHANNELS 6 Xposition Yposition Zposition Zrotation Yrotation Xrotation
  JOINT abdomen
  {
    OFFSET 0 20.6881 -0.73152
    CHANNELS 3 Zrotation Xrotation Yrotation
    JOINT chest
    {
      OFFSET 0 11.7043 -0.48768
      CHANNELS 3 Zrotation Xrotation Yrotation
      JOINT neck
      {
        OFFSET 0 22.1894 -2.19456
        CHANNELS 3 Zrotation Xrotation Yrotation
        JOINT head
        {
          OFFSET -0.24384 7.07133 1.2192
          CHANNELS 3 Zrotation Xrotation Yrotation
          JOINT leftEye
          {
            OFFSET 4.14528 8.04674 8.04672
            CHANNELS 3 Zrotation Xrotation Yrotation
            End Site
            {
              OFFSET 1 0 0
            }
          }
          JOINT rightEye
          {
            OFFSET -3.6576 8.04674 8.04672
            CHANNELS 3 Zrotation Xrotation Yrotation
            End Site
            {
              OFFSET 1 0 0
            }
          }
        }
      }
      JOINT rCollar
      {
        OFFSET -2.68224 19.2634 -4.8768
        CHANNELS 3 Zrotation Xrotation Yrotation
        JOINT rShldr
        {
          OFFSET -8.77824 -1.95073 1.46304
          CHANNELS 3 Zrotation Xrotation Yrotation
          JOINT rForeArm
          {
            OFFSET -28.1742 -1.7115 0.48768
            CHANNELS 3 Zrotation Xrotation Yrotation
            JOINT rHand
            {
              OFFSET -22.5879 0.773209 7.07136
              CHANNELS 3 Zrotation Xrotation Yrotation
              JOINT rThumb1
              {
                OFFSET -1.2192 -0.487915 3.41376
                CHANNELS 3 Zrotation Xrotation Yrotation
                JOINT rThumb2
                {
                  OFFSET -3.37035 -0.52449 3.41376
                  CHANNELS 3 Zrotation Xrotation Yrotation
                  End Site
                  {
                    OFFSET -1.78271 -1.18214 1.43049
                  }
                }
              }
              JOINT rIndex1
              {
                OFFSET -7.75947 0.938293 5.60832
                CHANNELS 3 Zrotation Xrotation Yrotation
                JOINT rIndex2
                {
                  OFFSET -2.54057 -0.884171 1.56538
                  CHANNELS 3 Zrotation Xrotation Yrotation
                  End Site
                  {
                    OFFSET -1.62519 -0.234802 1.16502
                  }
                }
              }
              JOINT rMid1
              {
                OFFSET -8.24714 1.18213 3.41376
                CHANNELS 3 Zrotation Xrotation Yrotation
                JOINT rMid2
                {
                  OFFSET -3.10165 -0.590103 1.0647
                  CHANNELS 3 Zrotation Xrotation Yrotation
                  End Site
                  {
                    OFFSET -2.48547 -0.328903 0.83742
                  }
                }
              }
              JOINT rRing1
              {
                OFFSET -8.82822 0.546677 1.51678
                CHANNELS 3 Zrotation Xrotation Yrotation
                JOINT rRing2
                {
                  OFFSET -2.60934 -0.819778 -0.0198488
                  CHANNELS 3 Zrotation Xrotation Yrotation
                  End Site
                  {
                    OFFSET -2.33842 -0.294052 0.168128
                  }
                }
              }
              JOINT rPinky1
              {
                OFFSET -8.27202 -0.0477905 -0.4584
                CHANNELS 3 Zrotation Xrotation Yrotation
                JOINT rPinky2
                {
                  OFFSET -1.82734 -0.647385 -0.700984
                  CHANNELS 3 Zrotation Xrotation Yrotation
                  End Site
                  {
                    OFFSET -1.69225 -0.51767 -0.607171
                  }
                }
              }
            }
          }
        }
      }
      JOINT lCollar
      {
        OFFSET 2.68224 19.2634 -4.8768
        CHANNELS 3 Zrotation Xrotation Yrotation
        JOINT lShldr
        {
          OFFSET 8.77824 -1.95073 1.46304
          CHANNELS 3 Zrotation Xrotation Yrotation
          JOINT lForeArm
          {
            OFFSET 28.1742 -1.7115 0.48768
            CHANNELS 3 Zrotation Xrotation Yrotation
            JOINT lHand
            {
              OFFSET 22.5879 0.773209 7.07136
              CHANNELS 3 Zrotation Xrotation Yrotation
              JOINT lThumb1
              {
                OFFSET 1.2192 -0.487915 3.41376
                CHANNELS 3 Zrotation Xrotation Yrotation
                JOINT lThumb2
                {
                  OFFSET 3.37035 -0.52449 3.41376
                  CHANNELS 3 Zrotation Xrotation Yrotation
                  End Site
                  {
                    OFFSET 1.78271 -1.18214 1.43049
                  }
                }
              }
              JOINT lIndex1
              {
                OFFSET 7.75947 0.938293 5.60832
                CHANNELS 3 Zrotation Xrotation Yrotation
                JOINT lIndex2
                {
                  OFFSET 2.54057 -0.884171 1.56538
                  CHANNELS 3 Zrotation Xrotation Yrotation
                  End Site
                  {
                    OFFSET 1.62519 -0.234802 1.16502
                  }
                }
              }
              JOINT lMid1
              {
                OFFSET 8.24714 1.18213 3.41376
                CHANNELS 3 Zrotation Xrotation Yrotation
                JOINT lMid2
                {
                  OFFSET 3.10165 -0.590103 1.0647
                  CHANNELS 3 Zrotation Xrotation Yrotation
                  End Site
                  {
                    OFFSET 2.48547 -0.328903 0.83742
                  }
                }
              }
              JOINT lRing1
              {
                OFFSET 8.82822 0.546677 1.51678
                CHANNELS 3 Zrotation Xrotation Yrotation
                JOINT lRing2
                {
                  OFFSET 2.60934 -0.819778 -0.0198488
                  CHANNELS 3 Zrotation Xrotation Yrotation
                  End Site
                  {
                    OFFSET 2.33842 -0.294052 0.168128
                  }
                }
              }
              JOINT lPinky1
              {
                OFFSET 8.27202 -0.0477905 -0.4584
                CHANNELS 3 Zrotation Xrotation Yrotation
                JOINT lPinky2
                {
                  OFFSET 1.82734 -0.647385 -0.700984
                  CHANNELS 3 Zrotation Xrotation Yrotation
                  End Site
                  {
                    OFFSET 1.69225 -0.51767 -0.607171
                  }
                }
              }
            }
          }
        }
      }
    }
  }
  JOINT rButtock
  {
    OFFSET -8.77824 4.35084 1.2192
    CHANNELS 3 Zrotation Xrotation Yrotation
    JOINT rThigh
    {
      OFFSET 0 -1.70687 -2.19456
      CHANNELS 3 Zrotation Xrotation Yrotation
      JOINT rShin
      {
        OFFSET 0 -36.8199 0.73152
        CHANNELS 3 Zrotation Xrotation Yrotation
        JOINT rFoot
        {
          OFFSET 0.73152 -45.1104 -5.12064
          CHANNELS 3 Zrotation Xrotation Yrotation
          End Site
          {
            OFFSET -1.1221 -3.69964 12.103
          }
        }
      }
    }
  }
  JOINT lButtock
  {
    OFFSET 8.77824 4.35084 1.2192
    CHANNELS 3 Zrotation Xrotation Yrotation
    JOINT lThigh
    {
      OFFSET 0 -1.70687 -2.19456
      CHANNELS 3 Zrotation Xrotation Yrotation
      JOINT lShin
      {
        OFFSET 0 -36.8199 0.73152
        CHANNELS 3 Zrotation Xrotation Yrotation
        JOINT lFoot
        {
          OFFSET -0.73152 -45.1104 -5.12064
          CHANNELS 3 Zrotation Xrotation Yrotation
          End Site
          {
            OFFSET 1.1221 -3.69964 12.103
          }
        }
      }
    }
  }
}
MOTION
Frames:	9
Frame Time:	0.00833333
9.70902 85.3239 9.75622 0.0 0.0 0.0 1.12931 -0.0039661 0.031026 0.311258 -0.00299218 0.0539189 -1.7773e-14 7.95139e-16 7.45442e-17 -5.31656e-14 9.54166e-15 2.0655e-16 -0.0 0.0 0.0 -0.0 0.0 0.0 -8.69839e-15 8.15328e-18 1.49089e-16 -1.82971e-13 3.23025e-16 9.93923e-16 -3.18955e-12 9.6172e-13 2.8625e-14 -3.64737e-11 -9.05564e-13 9.22361e-14 -8.60396e-11 1.16555e-13 2.67167e-13 -1.48589e-10 2.03556e-13 4.53229e-13 -8.60372e-11 1.1609e-13 2.54444e-13 7.73091 5.47488 0.417314 -8.60401e-11 1.16289e-13 2.60805e-13 2.90554 0.965183 0.102902 -8.60321e-11 1.16985e-13 2.59215e-13 10.2786 0.731801 0.0259123 -8.60447e-11 1.17283e-13 2.63986e-13 2.22167 -0.733487 -0.20892 -8.79524e-15 1.04828e-17 -4.96962e-17 -1.87667e-13 7.14382e-16 -1.19271e-15 -3.18309e-12 -9.44426e-13 5.725e-14 -3.64677e-11 1.0022e-12 6.36111e-14 -8.60089e-11 1.16652e-13 2.60805e-13 -1.48522e-10 1.90833e-13 4.57205e-13 -8.60149e-11 1.15693e-13 2.73528e-13 -7.73091 5.47488 -0.417314 -8.60092e-11 1.16289e-13 2.63986e-13 -2.90554 0.965183 -0.102902 -8.60148e-11 1.16587e-13 2.65576e-13 -10.2786 0.731801 -0.0259123 -8.60032e-11 1.19271e-13 2.60805e-13 -2.22167 -0.733487 0.20892 -2.03217e-16 0.0 -3.88251e-19 1.38144 -5.74254 -0.121776 0.000580605 4.84491 0.0342909 -0.535092 0.895514 0.07938 2.03217e-16 0.0 3.88251e-19 0.335636 -1.92038 0.0114974 0.00941161 -2.07853 0.0778157 0.520668 3.99667 -0.141557
11.8151 84.1616 5.01208 136.478 88.1029 148.715 1.32665 -3.67062 -0.0908028 0.191999 0.589126 0.0313286 0.659694 -0.54801 -0.0063542 -0.371672 -2.56022 -0.239284 -0.0 0.0 0.0 -0.0 0.0 0.0 -9.30758e-15 -4.1471e-13 6.33083e-15 22.3507 4.16106 -0.927439 -6.22933 -3.39223 9.04214 3.58944 -44.1969 -0.966277 -1.15984e-10 4.11412e-11 7.11134e-11 -1.94393e-10 6.83094e-11 1.01836e-10 -1.15976e-10 4.11408e-11 7.10987e-11 7.73091 5.47488 0.417314 -1.15984e-10 4.11403e-11 7.1108e-11 2.90554 0.965183 0.102902 -1.15976e-10 4.114e-11 7.11074e-11 10.2786 0.731801 0.0259123 -1.15989e-10 4.11399e-11 7.11132e-11 2.22167 -0.733487 -0.20892 -9.41296e-15 -4.1471e-13 6.0707e-15 -20.3387 4.80429 1.03055 6.14725 -3.32604 -8.95215 -3.90587 -46.2702 0.595502 -6.04109e-11 1.16284e-10 -5.3656e-11 -1.03037e-10 1.94049e-10 -7.32901e-11 -6.04166e-11 1.16283e-10 -5.36441e-11 -7.73091 5.47488 -0.417314 -6.04117e-11 1.16282e-10 -5.36539e-11 -2.90554 0.965183 -0.102902 -6.0416e-11 1.16284e-10 -5.36527e-11 -10.2786 0.731801 -0.0259123 -6.0406e-11 1.16286e-10 -5.36579e-11 -2.22167 -0.733487 0.20892 -2.03217e-16 0.0 -3.88251e-19 0.313356 -8.3144 -3.51381 -0.000173743 6.29535 0.0605701 -0.395497 -0.793081 3.29938 2.03217e-16 0.0 3.88251e-19 1.48335 -5.62962 2.06494 0.0125605 1.92015 0.00460854 0.440962 0.606861 -0.57902
11.8076 84.1605 5.00603 135.868 88.0846 148.138 1.51501 -7.54621 -0.220623 0.066523 1.21557 0.007745 1.35755 -1.12519 -0.0131963 -0.789225 -5.27686 -0.494538 -0.0 0.0 0.0 -0.0 0.0 0.0 -9.99244e-15 -8.57652e-13 1.29148e-14 46.1286 8.55758 -1.92463 -11.6639 -6.69617 18.7001 -114.305 -88.2995 -123.063 -1.46285e-10 8.16666e-11 1.46998e-10 -2.40901e-10 1.35433e-10 2.10991e-10 -1.46271e-10 8.16663e-11 1.46981e-10 7.73091 5.47488 0.417314 -1.46285e-10 8.16649e-11 1.46994e-10 2.90554 0.965183 0.102902 -1.46276e-10 8.16636e-11 1.46994e-10 10.2786 0.731801 0.0259123 -1.46289e-10 8.1663e-11 1.47001e-10 2.22167 -0.733487 -0.20892 -1.01103e-14 -8.57654e-13 1.25856e-14 -42.0335 9.86267 2.14942 11.5291 -6.57141 -18.5109 161.797 -84.7549 170.679 -3.27994e-11 2.34746e-10 -1.0923e-10 -5.41539e-11 3.91639e-10 -1.49444e-10 -3.2805e-11 2.34744e-10 -1.09219e-10 -7.73091 5.47488 -0.417314 -3.28009e-11 2.34742e-10 -1.0923e-10 -2.90554 0.965183 -0.102902 -3.28037e-11 2.34745e-10 -1.09229e-10 -10.2786 0.731801 -0.0259123 -3.27955e-11 2.34747e-10 -1.09235e-10 -2.22167 -0.733487 0.20892 -2.03217e-16 0.0 -3.88251e-19 -1.15349 -10.9847 -7.15539 -0.00246172 7.83721 0.0886653 -0.0409045 -2.56676 6.71063 2.03217e-16 0.0 3.88251e-19 2.98751 -9.52987 4.27221 0.0270309 6.14581 -0.0731207 0.300463 -2.97687 -1.04169
11.8062 84.1611 4.98303 135.313 88.0393 147.588 1.67385 -11.0038 -0.340155 -0.0451198 1.77336 -0.0138636 1.97872 -1.64403 -0.0190696 -1.17966 -7.68013 -0.723628 -0.0 0.0 0.0 -0.0 0.0 0.0 -1.05259e-14 -1.24415e-12 1.86943e-14 67.4644 12.4699 -2.84208 -15.5753 -9.16457 27.4579 -164.953 -47.3561 -176.931 -1.75873e-10 1.23191e-10 2.12806e-10 -2.86e-10 2.04521e-10 3.04602e-10 -1.75854e-10 1.2319e-10 2.12787e-10 7.73091 5.47488 0.417314 -1.75873e-10 1.23188e-10 2.12802e-10 2.90554 0.965183 0.102902 -1.75864e-10 1.23186e-10 2.12804e-10 10.2786 0.731801 0.0259123 -1.75877e-10 1.23185e-10 2.12812e-10 2.22167 -0.733487 -0.20892 -1.06484e-14 -1.24415e-12 1.83115e-14 -61.5485 14.3939 3.18074 15.4188 -9.00545 -27.1728 165.911 -41.173 178.359 -9.21471e-12 3.48619e-10 -1.6149e-10 -1.20661e-11 5.81764e-10 -2.20785e-10 -9.22011e-12 3.48617e-10 -1.61479e-10 -7.73091 5.47488 -0.417314 -9.21671e-12 3.48615e-10 -1.6149e-10 -2.90554 0.965183 -0.102902 -9.21848e-12 3.48618e-10 -1.61489e-10 -10.2786 0.731801 -0.0259123 -9.21162e-12 3.4862e-10 -1.61495e-10 -2.22167 -0.733487 0.20892 -2.03217e-16 0.0 -3.88251e-19 -2.75342 -13.2875 -10.4715 -0.00572704 9.19623 0.11374 0.451344 -4.11397 9.76386 2.03217e-16 0.0 3.88251e-19 4.59322 -12.9827 6.3037 0.0497432 9.91748 -0.143861 0.125589 -6.17069 -1.46301
11.8076 84.1628 4.98962 136.968 88.0763 149.243 1.79231 -13.4164 -0.428519 -0.123141 2.1595 -0.0305204 2.40841 -2.017 -0.022514 -1.45578 -9.30053 -0.881666 -0.0 0.0 0.0 -0.0 0.0 0.0 -1.06811e-14 -1.48953e-12 2.24627e-14 82.4006 15.1846 -3.50318 -17.8341 -10.5094 33.6492 -163.569 -18.3333 -177.331 -2.0368e-10 1.67211e-10 2.53423e-10 -3.27579e-10 2.78518e-10 3.59357e-10 -2.03659e-10 1.67211e-10 2.53404e-10 7.73091 5.47488 0.417314 -2.0368e-10 1.67209e-10 2.5342e-10 2.90554 0.965183 0.102902 -2.0367e-10 1.67206e-10 2.53422e-10 10.2786 0.731801 0.0259123 -2.03684e-10 1.67205e-10 2.5343e-10 2.22167 -0.733487 -0.20892 -1.07883e-14 -1.48953e-12 2.20651e-14 -75.2316 17.6256 3.90882 17.6729 -10.3393 -33.2906 163.857 -10.7055 178.477 4.30329e-12 4.51022e-10 -2.05461e-10 1.30339e-11 7.53225e-10 -2.80095e-10 4.29812e-12 4.5102e-10 -2.05451e-10 -7.73091 5.47488 -0.417314 4.30081e-12 4.51017e-10 -2.05461e-10 -2.90554 0.965183 -0.102902 4.29896e-12 4.51021e-10 -2.05461e-10 -10.2786 0.731801 -0.0259123 4.30548e-12 4.51022e-10 -2.05467e-10 -2.22167 -0.733487 0.20892 -2.03217e-16 0.0 -3.88251e-19 -4.02397 -14.8194 -12.8308 -0.00850243 10.0982 0.130765 0.885584 -5.15091 11.8963 2.03217e-16 0.0 3.88251e-19 5.87461 -15.3771 7.77736 0.0712254 12.5542 -0.194636 -0.0257678 -8.39176 -1.77011
11.8052 84.1645 4.99135 137.132 88.1118 149.419 1.87437 -14.3667 -0.469481 -0.154878 2.30489 -0.0405475 2.56733 -2.19093 -0.0230551 -1.5445 -9.81285 -0.935836 -0.0 0.0 0.0 -0.0 0.0 0.0 -1.05161e-14 -1.56961e-12 2.39757e-14 88.2419 16.2287 -3.76639 -18.6276 -10.9385 36.0944 -162.981 -6.98038 -177.268 -2.4478e-10 2.32027e-10 2.6032e-10 -3.87981e-10 3.88758e-10 3.58812e-10 -2.44761e-10 2.32026e-10 2.60303e-10 7.73091 5.47488 0.417314 -2.44779e-10 2.32024e-10 2.60316e-10 2.90554 0.965183 0.102902 -2.44769e-10 2.32022e-10 2.60317e-10 10.2786 0.731801 0.0259123 -2.44783e-10 2.32022e-10 2.60324e-10 2.22167 -0.733487 -0.20892 -1.05713e-14 -1.56962e-12 2.36294e-14 -80.567 19.0624 4.1529 18.4615 -10.7623 -35.6938 163.058 1.35991 178.421 -4.70322e-13 5.72252e-10 -2.52657e-10 8.48276e-12 9.57256e-10 -3.42464e-10 -4.75182e-13 5.72252e-10 -2.52648e-10 -7.73091 5.47488 -0.417314 -4.73413e-13 5.72249e-10 -2.52654e-10 -2.90554 0.965183 -0.102902 -4.77209e-13 5.72252e-10 -2.52655e-10 -10.2786 0.731801 -0.0259123 -4.69382e-13 5.72251e-10 -2.52662e-10 -2.22167 -0.733487 0.20892 -2.03217e-16 0.0 -3.88251e-19 -4.53309 -15.3598 -13.7673 -0.00923889 10.3498 0.13611 1.06068 -5.50991 12.7189 2.03217e-16 0.0 3.88251e-19 6.4397 -16.3333 8.39456 0.0808576 13.6038 -0.215294 -0.0945042 -9.25261 -1.90768
11.7855 84.1659 4.99957 138.834 88.1314 151.156 1.93411 -14.2724 -0.475328 -0.153656 2.27834 -0.0458192 2.533 -2.22244 -0.0214974 -1.49524 -9.53436 -0.914821 -0.0 0.0 0.0 -0.0 0.0 0.0 -1.01124e-14 -1.53009e-12 2.38511e-14 87.5536 16.0823 -3.73314 -18.5466 -10.8987 35.8336 -163.045 -8.24511 -177.279 -2.94622e-10 3.10873e-10 2.43056e-10 -4.60697e-10 5.23487e-10 3.18811e-10 -2.94608e-10 3.10871e-10 2.43043e-10 7.73091 5.47488 0.417314 -2.9462e-10 3.1087e-10 2.43051e-10 2.90554 0.965183 0.102902 -2.94611e-10 3.10868e-10 2.43052e-10 10.2786 0.731801 0.0259123 -2.94626e-10 3.10869e-10 2.43056e-10 2.22167 -0.733487 -0.20892 -1.00897e-14 -1.5301e-12 2.36026e-14 -79.8952 19.2203 4.03204 18.3712 -10.7129 -35.4144 163.146 0.281882 178.467 -1.81094e-11 7.0527e-10 -3.0145e-10 -1.69684e-11 1.18176e-09 -4.06072e-10 -1.8114e-11 7.05272e-10 -3.01443e-10 -7.73091 5.47488 -0.417314 -1.81132e-11 7.05269e-10 -3.01444e-10 -2.90554 0.965183 -0.102902 -1.81203e-11 7.05271e-10 -3.01445e-10 -10.2786 0.731801 -0.0259123 -1.811e-11 7.05267e-10 -3.01452e-10 -2.22167 -0.733487 0.20892 -2.03217e-16 0.0 -3.88251e-19 -4.43098 -15.218 -13.6669 -0.00826365 10.1374 0.13306 1.01142 -5.39628 12.6009 2.03217e-16 0.0 3.88251e-19 6.42749 -16.2747 8.37654 0.0795963 13.5195 -0.213734 -0.0919465 -9.14236 -1.9212
11.7769 84.1682 4.99499 138.949 88.1153 151.274 1.97771 -13.7597 -0.466701 -0.138705 2.18372 -0.0486816 2.42589 -2.18871 -0.0182969 -1.40176 -8.95943 -0.864617 -0.0 0.0 0.0 -0.0 0.0 0.0 -9.27797e-15 -1.3911e-12 2.2175e-14 84.2517 15.4643 -3.57807 -18.1139 -10.6695 34.4857 -163.37 -14.5573 -177.32 -3.22703e-10 3.67651e-10 2.13655e-10 -5.00335e-10 6.2102e-10 2.64466e-10 -3.22694e-10 3.67649e-10 2.13646e-10 7.73091 5.47488 0.417314 -3.22701e-10 3.67649e-10 2.13648e-10 2.90554 0.965183 0.102902 -3.22692e-10 3.67647e-10 2.13648e-10 10.2786 0.731801 0.0259123 -3.22707e-10 3.67649e-10 2.1365e-10 2.22167 -0.733487 -0.20892 -9.18165e-15 -1.3911e-12 2.20243e-14 -76.8235 18.8486 3.76089 17.9307 -10.4756 -34.0669 163.598 -6.09096 178.55 -3.41777e-11 7.87185e-10 -3.27157e-10 -4.139e-11 1.32052e-09 -4.38329e-10 -3.41819e-11 7.87189e-10 -3.27151e-10 -7.73091 5.47488 -0.417314 -3.41818e-11 7.87185e-10 -3.27148e-10 -2.90554 0.965183 -0.102902 -3.41922e-11 7.87186e-10 -3.2715e-10 -10.2786 0.731801 -0.0259123 -3.41793e-11 7.8718e-10 -3.27156e-10 -2.22167 -0.733487 0.20892 -2.03217e-16 0.0 -3.88251e-19 -4.09376 -14.8109 -13.156 -0.00674292 9.75605 0.126892 0.876626 -5.0992 12.1099 2.03217e-16 0.0 3.88251e-19 6.17521 -15.8071 8.09775 0.0741147 12.9792 -0.203215 -0.0602474 -8.64339 -1.88536
11.7672 84.1694 4.99358 139.587 88.1098 151.926 2.01073 -13.4546 -0.464407 -0.129211 2.12493 -0.0514826 2.36647 -2.1669 -0.0139099 -1.35691 -8.58241 -0.830975 -0.0 0.0 0.0 -0.0 0.0 0.0 -7.82072e-15 -1.17276e-12 1.90336e-14 82.2529 15.093 -3.47616 -17.8442 -10.5202 33.6717 -163.569 -18.3472 -177.329 -2.98521e-10 3.66263e-10 1.84138e-10 -4.61503e-10 6.19671e-10 2.20889e-10 -2.98515e-10 3.66261e-10 1.84132e-10 7.73091 5.47488 0.417314 -2.98518e-10 3.66261e-10 1.84132e-10 2.90554 0.965183 0.102902 -2.9851e-10 3.6626e-10 1.84131e-10 10.2786 0.731801 0.0259123 -2.98524e-10 3.66263e-10 1.84132e-10 2.22167 -0.733487 -0.20892 -7.68499e-15 -1.17276e-12 1.89342e-14 -74.9615 18.6965 3.55614 17.6623 -10.3281 -33.2668 163.878 -9.90961 178.593 -3.42387e-11 7.55105e-10 -3.05095e-10 -4.28524e-11 1.26736e-09 -4.0665e-10 -3.42426e-11 7.5511e-10 -3.05088e-10 -7.73091 5.47488 -0.417314 -3.42424e-11 7.55108e-10 -3.05085e-10 -2.90554 0.965183 -0.102902 -3.42548e-11 7.55106e-10 -3.05086e-10 -10.2786 0.731801 -0.0259123 -3.42403e-11 7.55099e-10 -3.05092e-10 -2.22167 -0.733487 0.20892 -2.03217e-16 0.0 -3.88251e-19 -3.89729 -14.5548 -12.8605 -0.00574692 9.5009 0.122858 0.793697 -4.90808 11.8133 2.03217e-16 0.0 3.88251e-19 6.02627 -15.5353 7.93492 0.0712564 12.6604 -0.197051 -0.0430607 -8.33805 -1.87517
